<svg width="139" height="73" viewBox="0 0 139 73" fill="none" xmlns="http://www.w3.org/2000/svg">
<path d="M28.9446 0.155853C25.1496 0.604179 23.622 0.990667 21.3386 2.08829C18.9909 3.21684 17.4954 4.25262 15.421 6.2469C13.411 8.17934 12.4462 9.46248 11.2562 11.7814C9.77684 14.6414 9.29443 17.1768 9.63212 20.1295C10.002 23.5306 11.1115 26.3752 13.2502 29.4671L13.5396 29.9H6.76982H0V30.5183V31.1367H69.065H138.13V30.5183V29.9H135.557C134.094 29.9 132.984 29.8381 132.984 29.7608C132.984 29.6835 133.274 28.3695 133.628 26.8544C134.85 21.5364 136.506 14.023 136.988 11.5804C137.873 7.03534 138.001 6.18506 138.034 4.43814C138.05 2.92311 138.017 2.6603 137.712 2.28927C137.181 1.59359 136.265 1.22256 135.155 1.25348C133.065 1.29986 129.382 2.72213 128.273 3.91252C127.244 5.01014 119.477 20.6242 116.47 27.6583L115.537 29.8227L112.032 29.869C108.783 29.9 108.542 29.8845 108.542 29.6371C108.542 29.4826 108.719 27.5347 108.944 25.293C109.62 18.5681 109.652 17.1768 109.411 9.74075C109.298 5.99955 109.153 2.70667 109.089 2.4284C108.799 1.06796 107.368 0.866991 104.49 1.81002C102.689 2.39748 100.679 3.29414 100.406 3.6497C100.229 3.86614 98.0578 9.16875 96.8036 12.4307C95.9835 14.5641 94.0056 20.3614 92.0116 26.4216L90.9021 29.8227L69.4188 29.869C57.5837 29.8845 47.9194 29.869 47.9194 29.8381C47.9194 29.6526 49.5113 25.3549 50.1867 23.7471C54.4158 13.5593 60.9605 5.79858 66.46 4.4536C67.7625 4.12895 69.467 4.22171 70.3836 4.67003C71.3002 5.13382 72.1685 5.98409 72.5866 6.84982C73.0851 7.88561 73.069 11.6114 72.5544 14.1003C71.67 18.3208 69.8851 21.5364 67.7464 22.7422C67.3605 22.9586 67.055 23.2214 67.055 23.3142C67.055 23.8553 68.1002 25.4476 68.9846 26.2515C70.271 27.4419 71.1394 27.7975 72.474 27.6892C75.9795 27.4264 78.6006 24.1026 79.871 18.3362C80.4016 15.8627 80.482 12.2761 80.0157 10.0654C79.1795 5.90679 77.0569 2.93857 73.8891 1.43899C72.0077 0.557802 70.673 0.325909 67.9394 0.418665C63.4369 0.58872 59.7384 1.94916 55.5415 4.97922C49.1093 9.63254 43.7063 17.6869 39.8631 28.3849L39.3164 29.9H31.5978H23.8793L22.0783 28.0448C20.1326 26.0351 18.9265 24.2263 17.8974 21.7992C16.7718 19.1092 16.5949 16.5429 17.3828 14.2086C18.6853 10.3901 24.1848 5.86041 29.2019 4.46906C30.9546 3.98981 32.8682 3.94344 33.8652 4.3763C35.1355 4.93284 36.2451 6.91166 36.5506 9.16875C36.9526 12.307 36.036 15.8009 33.4471 20.8252L32.4823 22.7113L32.9325 22.8968C33.6883 23.2214 35.634 23.1287 37.2742 22.7113C39.9596 22.0156 40.7797 21.4436 41.6963 19.573C43.0149 16.8367 43.7867 12.5544 43.433 9.72529C42.9666 5.96863 40.8923 2.81489 37.9335 1.40808C36.036 0.511423 34.5566 0.202232 31.839 0.140394C30.5526 0.109476 29.2501 0.124935 28.9446 0.155853ZM131.36 11.5031C131.199 12.4771 130.09 17.0067 128.916 21.5518L126.745 29.8227L124.381 29.869C122.516 29.9 122.034 29.869 122.098 29.7144C122.146 29.6062 122.612 28.4313 123.143 27.1172C125.25 21.9074 126.054 20.1914 128.755 15.0124C130.299 12.0442 131.585 9.64799 131.617 9.67892C131.634 9.70983 131.521 10.5292 131.36 11.5031ZM103.622 15.5226C103.622 18.9855 103.557 19.9904 103.107 23.7934C102.818 26.1742 102.544 28.5241 102.496 29.0033L102.4 29.9H100.18C98.1543 29.9 97.9614 29.8845 98.0257 29.6217C99.0548 25.2621 101.644 15.77 102.625 12.7554C103.252 10.8693 103.316 10.7302 103.461 11.1321C103.541 11.3795 103.622 13.3583 103.622 15.5226Z" fill="white"/>
<path d="M81.1734 33.0691C81.0126 33.4246 81.0447 33.5174 81.5432 34.0121L82.09 34.5686L81.495 35.0633C80.9643 35.5117 80.9161 35.6044 81.1091 35.8518C81.3181 36.1301 81.3342 36.1301 81.8648 35.8363C82.5885 35.4344 83.1352 34.615 83.1352 33.9657C83.1352 32.8836 81.5915 32.1724 81.1734 33.0691Z" fill="white"/>
<path d="M22.1909 37.3979V41.9585H22.8341H23.4773V37.3979V32.8374H22.8341H22.1909V37.3979Z" fill="white"/>
<path d="M59.7868 33.1157C59.224 33.4403 58.8541 34.1824 58.8541 34.9863C58.8541 35.6046 58.8381 35.6201 58.2913 35.6201C57.7607 35.6201 57.7285 35.651 57.7285 36.1612C57.7285 36.6713 57.7607 36.7023 58.2913 36.7023H58.8541V39.3304V41.9585H59.5778H60.3014V39.3304V36.7023H61.025C61.7486 36.7023 61.7486 36.7023 61.7486 36.1612C61.7486 35.6201 61.7486 35.6201 61.0089 35.6201H60.2853L60.3335 34.878L60.3818 34.1514L61.1375 34.1669C61.7808 34.1669 61.9094 34.1205 62.0702 33.7804C62.231 33.4403 62.2149 33.3475 61.9094 33.1157C61.4592 32.7601 60.3657 32.7601 59.7868 33.1157Z" fill="white"/>
<path d="M118.833 37.3979V41.9585H119.477H120.12V40.9072C120.12 39.9951 120.168 39.7942 120.49 39.5004L120.876 39.1603L122.114 40.5671L123.352 41.9585H124.156C125.121 41.9585 125.169 42.0667 123.304 40.0106C122.532 39.1449 121.889 38.3873 121.889 38.3255C121.889 38.2637 122.564 37.5989 123.384 36.8414L124.864 35.481L123.979 35.4655H123.095L121.615 36.8878L120.12 38.3255V35.5737V32.8374H119.477H118.833V37.3979Z" fill="white"/>
<path d="M3.85925 33.3321C2.5889 33.6722 1.92961 34.4916 1.92961 35.7129C1.92961 37.027 2.79795 37.8463 4.66327 38.2483C5.88537 38.5265 6.3517 38.7739 6.57682 39.315C6.83411 39.8715 6.62507 40.3044 5.94969 40.6445C4.95271 41.1392 3.79493 40.8764 2.89443 39.9488L2.31554 39.3459L1.86529 39.887L1.41504 40.4435L1.86529 40.9073C3.5698 42.6233 6.80195 42.4378 7.79893 40.5517C8.13662 39.9488 8.10445 38.913 7.73461 38.341C7.3326 37.7226 6.76979 37.4134 5.35472 37.0424C3.98789 36.6714 3.60196 36.4859 3.37684 36.0839C3.11955 35.6201 3.18388 35.3109 3.68237 34.8317C4.03613 34.5071 4.3095 34.3834 4.74367 34.3834C5.49944 34.3834 6.30346 34.7235 6.70547 35.2027L7.02707 35.6047L7.54164 35.0945L8.04013 34.5998L7.50948 34.0896C6.62507 33.2858 5.14567 32.9766 3.85925 33.3321Z" fill="white"/>
<path d="M39.5739 33.3166C38.3196 33.5485 37.0975 34.507 36.4704 35.7747C36.0684 36.6095 35.988 38.1245 36.3257 39.2222C36.5829 40.0879 37.5799 41.2319 38.4322 41.6493C39.8151 42.3295 41.9859 42.144 43.0794 41.2474L43.5618 40.8609L43.208 40.3353C42.9025 39.8869 42.8221 39.8405 42.6131 40.0261C42.1789 40.4126 41.198 40.7217 40.4744 40.7217C39.3648 40.7217 38.4483 40.1652 37.9176 39.1912C37.194 37.8617 37.387 36.4395 38.4161 35.45C39.4935 34.3988 40.8282 34.2906 42.1467 35.1563L42.8543 35.6046L43.2884 35.2027C43.6905 34.8317 43.7226 34.7544 43.5136 34.4761C43.2241 34.0432 41.7287 33.3476 40.9246 33.2548C40.5709 33.2239 39.9598 33.2393 39.5739 33.3166Z" fill="white"/>
<path d="M94.7129 37.6298V41.9585H95.3561H95.9993V38.8202V35.6974L97.2857 37.5835C98.9742 40.0879 98.942 40.0879 100.614 37.6144L101.869 35.7283L101.917 38.8511L101.949 41.9585H102.592H103.235V37.6298V33.3012H102.608H101.965L100.582 35.4655C99.8104 36.6559 99.1189 37.6608 99.0546 37.7071C98.9742 37.7535 98.2827 36.7796 97.4948 35.5428L96.0797 33.3166L95.4043 33.3012H94.7129V37.6298Z" fill="white"/>
<path d="M10.6132 34.6152V35.4655H9.88963H9.16602V36.0839V36.7023H9.88963H10.6132V39.3304V41.9585H11.2565H11.8997V39.3304V36.7023H12.7037H13.5077V36.0839V35.4655H12.7037H11.8997V34.6152V33.765H11.2565H10.6132V34.6152Z" fill="white"/>
<path d="M64.1124 33.8732C64.048 33.9195 63.9998 34.306 63.9998 34.7234V35.4655H63.3566H62.7134V36.0839V36.7023H63.3566H63.9998V39.3304V41.9585H64.7234H65.447V39.3304V36.7023H66.2511H67.0551V36.0839V35.4655H66.2511H65.447V34.6152V33.765H64.836C64.4983 33.765 64.1606 33.8113 64.1124 33.8732Z" fill="white"/>
<path d="M134.222 33.8732C134.158 33.9195 134.11 34.306 134.11 34.7234V35.4655H133.466H132.823V36.0839V36.7023H133.466H134.11V39.3304V41.9585H134.833H135.557V39.3304V36.7023H136.361H137.165V36.0839V35.4655H136.361H135.557V34.6152V33.765H134.946C134.608 33.765 134.27 33.8113 134.222 33.8732Z" fill="white"/>
<path d="M27.0149 35.5116C26.1626 35.7744 25.2943 36.702 25.0048 37.7069C24.6832 38.7426 24.7958 39.5929 25.3425 40.5205C26.2269 41.9891 28.4139 42.4993 30.1505 41.6336C31.035 41.2007 31.0832 41.1234 30.6973 40.5978L30.4239 40.2422L29.8129 40.5514C29.0732 40.9379 27.9958 40.9688 27.3365 40.6442C26.7737 40.3659 26.2109 39.7011 26.2109 39.3146C26.2109 39.0364 26.3878 39.0209 28.7837 39.0209H31.3566V38.5108C31.3566 36.2382 29.2983 34.8159 27.0149 35.5116ZM29.443 36.9957C30.2953 37.8305 30.1505 37.9388 28.0601 37.9388C26.8219 37.9388 26.2109 37.8769 26.2109 37.7687C26.2109 37.6759 26.4521 37.3668 26.7576 37.073C27.24 36.6092 27.4008 36.5474 28.1405 36.5474C28.848 36.5474 29.041 36.6092 29.443 36.9957Z" fill="white"/>
<path d="M47.6621 35.5273C47.3887 35.651 47.0189 35.9293 46.8259 36.1612L46.4721 36.594V36.022V35.4655H45.7485H45.0249V38.712V41.9585H45.7485H46.4721V39.856V37.7535L47.0349 37.2124C47.5334 36.7332 47.6782 36.6713 48.241 36.7332C48.8681 36.7796 48.9003 36.7796 49.0611 36.2076C49.1415 35.8829 49.1736 35.5428 49.1254 35.4655C48.9807 35.2491 48.257 35.28 47.6621 35.5273Z" fill="white"/>
<path d="M51.6823 35.4807C51.4089 35.558 50.8944 35.929 50.5245 36.3C48.9004 38.0006 49.4311 40.907 51.5215 41.8191C51.8913 41.9737 52.3255 42.1128 52.5024 42.1128C53.1134 42.1128 54.0139 41.7881 54.5124 41.4017L54.9948 40.9997V41.479C54.9948 41.9273 55.027 41.9582 55.6381 41.9582H56.2813V38.7117V35.4652H55.6381C55.027 35.4652 54.9948 35.4807 54.9948 35.9599V36.4546L54.6572 36.099C53.9657 35.3879 52.8401 35.156 51.6823 35.4807ZM54.0943 36.872C55.0431 37.5986 55.3004 39.0054 54.625 39.9639C53.8853 41.0306 52.631 41.2007 51.6662 40.3659C51.1516 39.9021 51.0712 39.732 51.0069 38.9436C50.8783 37.4286 51.6019 36.5628 53.0009 36.5474C53.4351 36.5474 53.8049 36.6556 54.0943 36.872Z" fill="white"/>
<path d="M69.8688 35.5428C67.8106 36.2385 67.0065 39.2377 68.4538 40.8764C69.4829 42.0667 71.5734 42.4223 72.9884 41.6493C73.8407 41.1856 73.9211 41.031 73.5191 40.5672L73.2296 40.2271L72.6829 40.5517C71.493 41.2474 69.8045 40.83 69.2899 39.7324L69.0005 39.0985L71.6055 39.0212L74.2105 38.9439L74.1784 38.2019C74.1301 37.4134 73.712 36.4859 73.2135 36.053C72.4095 35.3419 71.0588 35.1409 69.8688 35.5428ZM72.3774 36.996C73.2296 37.8308 73.0849 37.9391 70.9945 37.9391C69.9814 37.9391 69.1452 37.8927 69.1452 37.8154C69.1613 37.5371 69.6116 36.9496 69.9653 36.7641C70.1744 36.6559 70.705 36.5632 71.1231 36.5477C71.7824 36.5477 71.9754 36.625 72.3774 36.996Z" fill="white"/>
<path d="M78.3113 35.481C78.0862 35.5737 77.7163 35.8211 77.4751 36.0375L77.0249 36.4549V35.9602C77.0249 35.481 77.0088 35.4655 76.3013 35.4655H75.5776V38.712V41.9585H76.3013H77.0249V39.856V37.7535L77.5877 37.2124C78.0862 36.7332 78.2309 36.6713 78.7937 36.7332C79.4208 36.7796 79.453 36.7796 79.6138 36.2076C79.6942 35.8829 79.7264 35.5428 79.6781 35.4655C79.5495 35.2645 78.8419 35.28 78.3113 35.481Z" fill="white"/>
<path d="M85.8045 35.4654C84.3894 35.8828 83.8587 37.6143 84.92 38.4645C85.1612 38.6655 85.7241 38.9593 86.1421 39.0984C87.8145 39.6549 87.9592 39.7631 87.9592 40.2424C87.9592 41.1081 86.6728 41.3246 85.6276 40.6289L85.0165 40.2424L84.6145 40.6134C84.4055 40.8299 84.2768 41.0772 84.3251 41.17C84.5341 41.4946 85.7241 41.9739 86.512 42.0666C87.9271 42.2212 89.2456 41.2936 89.2456 40.1187C89.2456 39.0675 88.6185 38.5109 86.9944 38.0935C86.11 37.8771 85.708 37.5524 85.708 37.0732C85.708 36.3311 86.8336 36.1765 87.8949 36.764L88.5703 37.135L88.908 36.6867L89.2456 36.2538L88.7954 35.9601C87.8949 35.3572 86.8175 35.1871 85.8045 35.4654Z" fill="white"/>
<path d="M107.24 35.4655C104.86 36.1457 104.249 39.5932 106.194 41.3092C107.304 42.2832 108.671 42.3295 109.925 41.4174L110.472 41.0155V41.4793C110.472 41.9276 110.504 41.9585 111.115 41.9585H111.758V38.712V35.4655H111.115C110.536 35.4655 110.472 35.4964 110.472 35.852C110.472 36.3003 110.279 36.3467 109.973 35.9757C109.475 35.4037 108.237 35.1718 107.24 35.4655ZM109.587 36.8878C111.26 38.1555 110.391 40.8763 108.317 40.8763C107.819 40.8763 107.593 40.7681 107.079 40.2734C106.5 39.7169 106.452 39.6087 106.452 38.8048C106.452 37.3052 107.127 36.5631 108.478 36.5477C108.928 36.5477 109.282 36.6559 109.587 36.8878Z" fill="white"/>
<path d="M116.261 35.481C116.036 35.5737 115.666 35.8211 115.425 36.0375L114.975 36.4549V35.9602C114.975 35.481 114.958 35.4655 114.251 35.4655H113.527V38.712V41.9585H114.251H114.975V39.856V37.7535L115.537 37.2124C116.036 36.7332 116.181 36.6713 116.743 36.7332C117.371 36.7796 117.403 36.7796 117.564 36.2076C117.644 35.8829 117.676 35.5428 117.628 35.4655C117.499 35.2645 116.792 35.28 116.261 35.481Z" fill="white"/>
<path d="M127.614 35.5274C126.295 36.0067 125.427 37.2434 125.427 38.7121C125.427 40.3663 126.472 41.6185 128.128 41.9895C129.077 42.1905 130.058 42.0359 130.958 41.5257C131.569 41.1856 131.618 41.0001 131.248 40.5672L130.958 40.2271L130.412 40.5518C129.672 40.9846 128.434 40.9846 127.71 40.5672C127.276 40.3044 126.713 39.4851 126.713 39.0986C126.713 39.0522 127.871 39.0213 129.286 39.0213H131.859V38.2947C131.859 36.1767 129.72 34.7854 127.614 35.5274ZM129.785 36.7024C130.042 36.8415 130.572 37.599 130.572 37.8618C130.572 37.9082 129.736 37.9391 128.723 37.9391C126.826 37.9391 126.713 37.8927 127.035 37.3207C127.405 36.656 128.997 36.3004 129.785 36.7024Z" fill="white"/>
<path d="M13.8774 35.6508C13.9096 35.759 14.6171 37.3049 15.4372 39.0673L16.9327 42.2829L16.4181 43.3805C16.1448 43.9834 15.9196 44.54 15.9196 44.6173C15.9196 44.6946 16.2252 44.741 16.595 44.71C17.2382 44.6637 17.2704 44.6327 17.5759 43.8907C17.7528 43.4578 18.6051 41.4326 19.4895 39.3765C20.3578 37.3204 21.0653 35.6044 21.0653 35.5426C21.0653 35.4962 20.7277 35.4653 20.3096 35.4962L19.5377 35.5426L18.6211 37.9388C18.1226 39.2528 17.6885 40.3968 17.6563 40.4587C17.6242 40.536 17.0935 39.4383 16.4824 38.0315L15.3729 35.4653H14.585C14.0222 35.4653 13.8131 35.5271 13.8774 35.6508Z" fill="white"/>
<path d="M0 45.8232V46.4416L12.6713 46.4725L25.3265 46.5189L25.7124 47.833C26.0501 49.0079 26.0984 49.4717 26.1145 52.1616C26.1305 55.6555 26.0019 56.243 24.5225 59.1957C22.7537 62.736 20.5828 65.2249 18.3798 66.2453C17.4472 66.6781 17.0612 66.7709 15.823 66.8173C13.6683 66.91 12.8321 66.6318 11.4331 65.3795C10.1467 64.2046 9.31051 62.8287 8.8281 61.0199C8.42609 59.5049 8.28137 57.186 8.50649 55.8874C8.69946 54.7588 9.42307 53.182 10.1628 52.2853C10.806 51.4969 10.6613 51.3887 8.9085 51.3887C6.43213 51.3887 4.10048 52.2235 1.84924 53.9086C0.530651 54.898 0.450249 55.0526 0.144723 57.1551C-0.369848 60.7108 1.55979 65.9515 4.47033 68.9043C8.12057 72.6146 14.81 73.1711 20.824 70.2957C22.4964 69.4918 23.7506 68.5796 25.1979 67.0955C26.8702 65.4104 28.0119 63.7408 29.3305 61.1282C31.1315 57.5261 32.2571 53.0738 32.434 48.7142L32.5305 46.4416H34.2029H35.8591V49.0234C35.8591 51.8988 36.0199 53.6303 36.5184 55.9801C37.8692 62.5041 41.6159 67.7758 46.5525 70.1101C48.6269 71.0841 50.0259 71.3778 52.6631 71.3778C55.2198 71.3778 56.5063 71.115 58.5967 70.1874C63.2922 68.1004 68.1806 63.1997 71.2198 57.5261L72.0238 56.0111V58.6083C72.0238 60.046 72.0881 61.7775 72.2007 62.4731C72.7956 66.6936 74.468 69.4145 77.266 70.6976C78.5685 71.3005 79.8871 71.5324 81.7041 71.4551C83.6338 71.3933 84.8559 70.8986 86.0137 69.7082C88.5383 67.1419 90.1785 63.0297 91.8991 54.9444C92.4136 52.5791 93.6036 47.4929 93.8448 46.7044C93.9252 46.4571 94.2468 46.4416 97.688 46.4416H101.435L101.531 47.632C101.853 51.5587 102.528 55.4391 103.252 57.5261C103.67 58.7474 104.442 59.8605 105.133 60.247C105.825 60.6335 107.015 60.6489 107.738 60.2779C108.558 59.8759 110.07 58.7319 111.035 57.7889C112.369 56.4749 114.444 52.2853 116.003 47.7093L116.454 46.4416H119.493C121.165 46.4416 122.532 46.5035 122.532 46.5808C122.532 46.6426 121.985 49.1625 121.326 52.1771C119.284 61.561 118.994 63.7563 119.557 66.0597C120.088 68.2086 121.567 69.9865 123.609 70.914C124.59 71.3624 124.88 71.4087 126.504 71.4551C129.173 71.5479 131.617 70.8986 133.788 69.5536L134.512 69.0898L133.274 68.9971C130.106 68.7497 128.401 66.3226 127.823 61.2828C127.517 58.5619 127.887 54.4033 128.948 48.8379L129.382 46.5189L133.756 46.4725L138.13 46.4416V45.8232V45.2049H69.065H0V45.8232ZM74.6127 46.5189C74.6127 46.5498 74.0981 47.3692 73.4549 48.3277C72.8278 49.2862 71.3002 51.636 70.0781 53.553C67.5535 57.4643 66.2831 59.072 64.2087 60.989C60.7032 64.2355 57.2942 65.8124 53.7887 65.8124C51.9877 65.7969 50.8621 65.5032 49.5113 64.6684C47.0993 63.1843 45.2179 59.8605 44.6229 56.0265C44.3656 54.496 44.3013 49.9819 44.4943 47.7093L44.5907 46.4416H59.5937C67.859 46.4416 74.6127 46.4725 74.6127 46.5189ZM86.9142 46.7817C86.8659 46.9827 86.6086 48.0649 86.3514 49.1934C84.2127 58.3764 80.9484 66.3071 79.6298 65.5187C79.1474 65.2249 78.6489 64.3592 78.2469 63.1379C76.9283 59.1493 77.2338 53.6458 79.067 48.2195C79.7263 46.2407 79.2439 46.4416 83.3926 46.4416H86.9946L86.9142 46.7817Z" fill="white"/>
</svg>
